<svg xmlns="http://www.w3.org/2000/svg" viewBox="46 41 584.56 76" width="584.56" height="76" role="img" aria-label="Wideframe">
  <defs>
    <linearGradient id="wfStroke" x1="20" y1="46" x2="216" y2="122" gradientUnits="userSpaceOnUse">
      <stop offset="0" stop-color="#2C5BFF"></stop><stop offset="0.52" stop-color="#5A41F2"></stop><stop offset="1" stop-color="#9A30EA"></stop>
    </linearGradient>
    <linearGradient id="wfPeakBack" x1="118" y1="74" x2="168" y2="118" gradientUnits="userSpaceOnUse">
      <stop offset="0" stop-color="#4A57DA"></stop><stop offset="1" stop-color="#2A2A8C"></stop>
    </linearGradient>
    <linearGradient id="wfPeakFront" x1="58" y1="84" x2="108" y2="118" gradientUnits="userSpaceOnUse">
      <stop offset="0" stop-color="#7FA2F2"></stop><stop offset="1" stop-color="#4E72E6"></stop>
    </linearGradient>
    <clipPath id="wfInner"><path d="M57,47 Q118,57 179,47 Q185,79 183,111 Q118,101 53,111 Q51,79 57,47 Z"></path></clipPath>  </defs>
  <g clip-path="url(#wfInner)">
    <path d="M100,112 L146,78 L192,112 Z" fill="url(#wfPeakBack)"></path>
    <path d="M46,112 L92,86 L138,112 Z" fill="url(#wfPeakFront)"></path>
  </g>
  <path d="M57,47 Q118,57 179,47 Q185,79 183,111 Q118,101 53,111 Q51,79 57,47 Z" fill="none" stroke="url(#wfStroke)" stroke-width="10.5" stroke-linejoin="round" stroke-linecap="round"></path>
  <path d="M219.01 101.95 L226.35 101.95 L233.75 73 C234.22 71.19 234.48 69.93 234.62 68.73 C234.75 69.93 235.02 71.19 235.55 73.06 L243.09 101.95 L250.43 101.95 L260.50 55.25 L252.43 55.25 L246.89 82.74 C246.43 84.80 246.23 86.07 246.09 87.14 C245.96 86.07 245.76 84.80 245.16 82.67 L238.15 55.25 L231.35 55.25 L224.48 82.74 C223.94 84.87 223.68 86.14 223.54 87.21 C223.41 86.14 223.14 84.87 222.74 82.74 L217.21 55.25 L209 55.25 Z M273.85 101.95 L281.85 101.95 L281.85 55.25 L273.85 55.25 Z M298.20 55.25 L298.20 101.95 L312.34 101.95 C329.48 101.95 335.09 89.27 335.09 78.60 C335.09 66.99 328.95 55.25 312.61 55.25 Z M313.47 94.41 L306.20 94.41 L306.20 62.79 L314.21 62.79 C323.08 62.79 326.82 70.73 326.82 78.60 C326.82 85.94 323.41 94.41 313.47 94.41 Z M349.43 101.95 L381.32 101.95 L381.32 94.41 L357.44 94.41 L357.44 81.60 L371.25 81.60 L371.25 74.06 L357.44 74.06 L357.44 62.79 L379.85 62.79 L379.85 55.25 L349.43 55.25 Z M395 101.95 L403 101.95 L403 81.60 L417.15 81.60 L417.15 74.06 L403 74.06 L403 62.79 L425.15 62.79 L425.15 55.25 L395 55.25 Z M437.49 101.95 L445.50 101.95 L445.50 83.67 L455.24 83.67 L464.25 101.95 L473.25 101.95 L463.91 82.80 C470.52 80.80 473.52 74.80 473.52 69.46 C473.52 62.12 469.78 55.25 458.17 55.25 L437.49 55.25 Z M445.50 76.06 L445.50 62.86 L458.31 62.86 C463.78 62.86 465.25 66.32 465.25 69.46 C465.25 72.86 463.51 76.06 458.31 76.06 Z M518.95 101.95 L527.36 101.95 L510.01 55.25 L502.07 55.25 L484.66 101.95 L493.13 101.95 L496.80 91.74 L515.28 91.74 Z M512.75 84.54 L499.34 84.54 L504.54 70.53 C505.01 69.19 505.67 67.19 506.08 65.79 C506.41 67.19 507.08 69.19 507.61 70.53 Z M582.66 101.95 L582.66 55.25 L574.86 55.25 L562.78 82.67 C562.31 83.80 561.85 85.07 561.51 86.14 C561.18 85.07 560.71 83.80 560.25 82.67 L548.24 55.25 L540.17 55.25 L540.17 101.95 L548.17 101.95 L548.17 77.13 C548.17 75.46 548.04 72.80 547.90 71.53 C548.50 73.33 549.37 75.53 550.11 77.13 L561.45 102.75 L572.79 77.27 C573.46 75.60 574.32 73.33 574.92 71.53 C574.79 72.80 574.66 75.46 574.66 77.13 L574.66 101.95 Z M598.67 101.95 L630.56 101.95 L630.56 94.41 L606.68 94.41 L606.68 81.60 L620.49 81.60 L620.49 74.06 L606.68 74.06 L606.68 62.79 L629.09 62.79 L629.09 55.25 L598.67 55.25 Z" fill="#FFFFFF"></path>
</svg>